<svg xmlns="http://www.w3.org/2000/svg" width="1920" height="200.77" viewBox="0 0 1920 200.77">
  <path id="Subtraction_3" data-name="Subtraction 3" d="M2073,200.768H153v-97l.015-.006c.713-.274,17.8-6.819,47.438-16.207,17.833-5.65,36.735-11.241,56.181-16.619,24.311-6.724,49.555-13.133,75.032-19.051,64.844-15.062,131.547-27.064,198.257-35.67C569.534,11.1,609.587,7.148,648.969,4.458,692.291,1.5,735.874,0,778.508,0c27.281,0,54.757.615,81.663,1.828C888.357,3.1,916.694,5.061,944.4,7.66c28.934,2.715,57.982,6.2,86.337,10.358,29.535,4.331,59.144,9.514,88,15.4C1270.172,64.329,1430.195,80,1594.358,80c64.5,0,129.794-2.449,194.077-7.278,51.425-3.863,102.323-9.25,151.279-16.011,43.558-6.016,77.477-12.028,98.262-16.012,22.4-4.294,34.9-7.249,35.025-7.278Z" transform="translate(-153 0.001)" fill="#eaf4fb"/>
</svg>
