<svg xmlns="http://www.w3.org/2000/svg" width="1920" height="131.001" viewBox="0 0 1920 131.001">
  <path id="Subtraction_2" data-name="Subtraction 2" d="M2073,1126h0l-.064,0c-2.955-.092-30.192-.964-76.114-3.283-44.66-2.255-116.736-6.382-206.486-13.238-100.874-7.706-203.06-17.218-303.72-28.272-125.821-13.817-249.594-30.1-367.88-48.385-23.855-3.688-48.26-6.939-72.536-9.661-23.494-2.635-47.5-4.846-71.361-6.573-23.048-1.668-46.582-2.93-69.95-3.75-22.53-.79-45.511-1.191-68.3-1.191-23.671,0-47.8.432-71.722,1.284-22.875.815-46.168,2.036-69.232,3.629-42.9,2.964-86.577,7.322-129.812,12.954C493,1039,420.072,1052.225,349.056,1068.823c-27.9,6.521-55.569,13.584-82.236,20.995-21.337,5.929-42.083,12.091-61.66,18.315-33.179,10.547-51.973,17.8-52.159,17.868V995H2073v131Z" transform="translate(-153 -995)" fill="#1592e6"/>
</svg>
